PathFileType	4	(x/y/z)	S04_SL_Cal.trc
DataRate	CameraRate	NumFrames	NumMarkers	Units	OrigDataRate	OrigDataStartFrame	OrigNumFrames
240	240	10	51	mm	240	901	2400
Frame#	Time	Sternum			R.Acromium			L.Acromium			Top.Head			R.ASIS			L.ASIS			R.PSIS			L.PSIS			R.Great.Tro			L.Great.Tro			R.Iliac.Crest			L.Iliac.Crest			V.Sacral			R.Thigh.Upper.Post			R.Thigh.Lower.Ant			R.Thigh.Lower.Post			R.Thigh.Upper.Ant			R.Knee.Lat			R.Knee.Med			R.Shank.Upper.Post			R.Shank.Lower.Ant			R.Shank.Lower.Post			R.Shank.Upper.Ant			R.Ankle.Lat			R.Ankle.Med			R.Heel.Upper			R.Heel.Med			R.Heel.Lat			R.Toe.Lat			R.Toe.Med			R.Toe.Tip			L.Thigh.Upper.Post			L.Thigh.Lower.Ant			L.Thigh.Lower.Post			L.Thigh.Upper.Ant			L.Knee.Lat			L.Knee.Med			L.Shank.Upper.Post			L.Shank.Lower.Ant			L.Shank.Lower.Post			L.Shank.Upper.Ant			L.Ankle.Lat			L.Ankle.Med			L.Heel.Upper			L.Heel.Med			L.Heel.Lat			L.Toe.Lat			L.Toe.Med			L.Toe.Tip			Cervical.Spine			Back			
		X1	Y1	Z1	X2	Y2	Z2	X3	Y3	Z3	X4	Y4	Z4	X5	Y5	Z5	X6	Y6	Z6	X7	Y7	Z7	X8	Y8	Z8	X9	Y9	Z9	X10	Y10	Z10	X11	Y11	Z11	X12	Y12	Z12	X13	Y13	Z13	X14	Y14	Z14	X15	Y15	Z15	X16	Y16	Z16	X17	Y17	Z17	X18	Y18	Z18	X19	Y19	Z19	X20	Y20	Z20	X21	Y21	Z21	X22	Y22	Z22	X23	Y23	Z23	X24	Y24	Z24	X25	Y25	Z25	X26	Y26	Z26	X27	Y27	Z27	X28	Y28	Z28	X29	Y29	Z29	X30	Y30	Z30	X31	Y31	Z31	X32	Y32	Z32	X33	Y33	Z33	X34	Y34	Z34	X35	Y35	Z35	X36	Y36	Z36	X37	Y37	Z37	X38	Y38	Z38	X39	Y39	Z39	X40	Y40	Z40	X41	Y41	Z41	X42	Y42	Z42	X43	Y43	Z43	X44	Y44	Z44	X45	Y45	Z45	X46	Y46	Z46	X47	Y47	Z47	X48	Y48	Z48	X49	Y49	Z49	X50	Y50	Z50	X51	Y51	Z51	

901	3.75	353.21	1294.4	276.82	208.53	1521.8	451.66	195.52	1511	112.73	201.34	1838.2	271.81	330.77	1002.2	416.21	335.51	1014.5	166.25	121.89	1047.3	314.46	130.78	1050	232.49	233.27	929.21	480.23	213.49	937.23	100.53	249.06	1097.7	457.74	235.69	1102.3	118.91	103.04	1008.1	273.44	204.12	676.2	492.81	270.91	583.89	466.44	194.75	585.55	486.39	290.57	692.74	477.66	211.99	515.74	479.74	190.78	499.01	354.84	135.89	294.16	495.67	208.29	215.64	465.26	134.89	223.17	484.81	201.49	287.22	483.31	155.63	108.19	476.07	182.56	114.65	389.09	96.909	74.09	419.71	109.19	44.033	390.65	97.699	42.115	454.34	262.18	39.998	519.31	311.47	40.589	404	368.59	58.37	458.64	167.28	713.03	96.409	235.45	607.27	90.482	164.99	623.51	98.872	232.94	697.64	81.985	192.08	522.28	96.205	193.53	500.2	218.11	109.61	343.32	81.716	184.32	262.14	74.287	120.39	265.59	83.31	172.84	338.14	73.276	176.09	105.88	82.104	185.38	109.1	173.35	106.07	71.843	122.05	112.76	46.899	155.58	110.55	44.386	94.162	293.74	43.151	52.997	326.44	49.355	168.28	382.93	59.204	118.1	160.25	1555.4	286.99	94.601	1298.1	266.53
902	3.7542	353.23	1294.4	276.82	208.54	1521.8	451.66	195.55	1511	112.73	201.39	1838.2	271.82	330.76	1002.2	416.21	335.51	1014.4	166.26	121.89	1047.3	314.46	130.78	1050	232.5	233.26	929.21	480.23	213.49	937.23	100.54	249.06	1097.8	457.75	235.7	1102.3	118.91	103.04	1008.1	273.44	204.11	676.2	492.81	270.9	583.89	466.45	194.74	585.55	486.4	290.56	692.74	477.67	211.98	515.74	479.74	190.78	499.01	354.84	135.89	294.16	495.67	208.29	215.64	465.26	134.9	223.16	484.82	201.49	287.22	483.32	155.63	108.19	476.07	182.56	114.65	389.1	96.909	74.089	419.71	109.19	44.033	390.65	97.699	42.115	454.34	262.18	39.998	519.31	311.47	40.589	404	368.59	58.37	458.64	167.28	713.02	96.413	235.45	607.27	90.486	164.99	623.51	98.876	232.94	697.64	81.99	192.08	522.28	96.207	193.53	500.2	218.11	109.61	343.32	81.714	184.32	262.14	74.288	120.39	265.59	83.31	172.84	338.15	73.277	176.09	105.89	82.103	185.38	109.1	173.35	106.07	71.844	122.05	112.76	46.899	155.58	110.55	44.386	94.162	293.74	43.151	52.998	326.44	49.354	168.28	382.92	59.203	118.11	160.27	1555.4	286.99	94.61	1298.1	266.52
903	3.7583	353.24	1294.4	276.82	208.56	1521.8	451.66	195.57	1511	112.73	201.43	1838.2	271.82	330.76	1002.2	416.22	335.51	1014.4	166.26	121.89	1047.3	314.47	130.77	1050	232.5	233.25	929.21	480.23	213.49	937.23	100.54	249.07	1097.8	457.75	235.71	1102.3	118.92	103.03	1008.2	273.45	204.1	676.2	492.82	270.89	583.89	466.45	194.74	585.55	486.4	290.56	692.74	477.67	211.98	515.74	479.74	190.77	499.01	354.85	135.88	294.16	495.67	208.29	215.64	465.26	134.9	223.16	484.82	201.48	287.21	483.32	155.63	108.18	476.07	182.56	114.65	389.1	96.908	74.088	419.71	109.19	44.033	390.65	97.699	42.114	454.34	262.18	39.998	519.31	311.47	40.589	404	368.59	58.37	458.64	167.28	713.02	96.417	235.45	607.27	90.491	164.99	623.51	98.879	232.94	697.64	81.995	192.08	522.28	96.21	193.52	500.2	218.12	109.61	343.32	81.713	184.32	262.14	74.289	120.39	265.59	83.31	172.84	338.15	73.278	176.09	105.89	82.103	185.38	109.1	173.35	106.07	71.845	122.05	112.76	46.899	155.58	110.55	44.387	94.162	293.74	43.151	52.998	326.44	49.354	168.29	382.92	59.203	118.11	160.28	1555.4	286.99	94.619	1298.1	266.52
904	3.7625	353.25	1294.4	276.82	208.57	1521.8	451.66	195.59	1511	112.73	201.48	1838.2	271.82	330.75	1002.2	416.22	335.51	1014.4	166.27	121.88	1047.3	314.47	130.77	1050	232.5	233.25	929.21	480.24	213.49	937.23	100.55	249.07	1097.8	457.75	235.72	1102.3	118.92	103.03	1008.2	273.45	204.09	676.2	492.82	270.89	583.89	466.46	194.73	585.55	486.4	290.55	692.74	477.68	211.97	515.74	479.75	190.77	499.01	354.85	135.88	294.16	495.68	208.28	215.64	465.26	134.9	223.16	484.82	201.48	287.21	483.32	155.62	108.18	476.07	182.56	114.65	389.1	96.908	74.087	419.71	109.19	44.033	390.65	97.7	42.114	454.34	262.18	39.998	519.31	311.47	40.589	404	368.59	58.37	458.64	167.27	713.02	96.421	235.45	607.27	90.495	164.99	623.51	98.883	232.94	697.64	82	192.08	522.28	96.213	193.52	500.2	218.12	109.61	343.32	81.711	184.32	262.14	74.29	120.39	265.59	83.31	172.84	338.15	73.28	176.09	105.89	82.102	185.38	109.1	173.34	106.07	71.846	122.05	112.76	46.899	155.58	110.55	44.387	94.162	293.74	43.151	52.999	326.44	49.354	168.29	382.92	59.202	118.11	160.3	1555.4	286.99	94.628	1298.1	266.52
905	3.7667	353.27	1294.4	276.81	208.59	1521.8	451.66	195.61	1511	112.73	201.52	1838.3	271.83	330.74	1002.2	416.22	335.51	1014.4	166.28	121.88	1047.3	314.47	130.77	1050	232.51	233.24	929.22	480.24	213.48	937.24	100.55	249.07	1097.8	457.76	235.72	1102.3	118.93	103.03	1008.2	273.45	204.09	676.2	492.82	270.88	583.89	466.46	194.72	585.55	486.41	290.54	692.74	477.69	211.96	515.74	479.75	190.76	499.01	354.85	135.88	294.16	495.68	208.28	215.64	465.26	134.9	223.15	484.82	201.48	287.21	483.33	155.62	108.18	476.07	182.56	114.65	389.1	96.907	74.086	419.71	109.19	44.032	390.65	97.7	42.114	454.34	262.18	39.998	519.31	311.47	40.589	404	368.59	58.37	458.64	167.27	713.02	96.425	235.45	607.27	90.5	164.99	623.51	98.886	232.94	697.64	82.004	192.08	522.28	96.216	193.51	500.2	218.12	109.61	343.32	81.71	184.32	262.15	74.291	120.39	265.59	83.309	172.83	338.15	73.282	176.09	105.89	82.101	185.38	109.11	173.34	106.07	71.846	122.05	112.76	46.899	155.58	110.55	44.388	94.161	293.74	43.152	52.999	326.44	49.353	168.29	382.92	59.202	118.11	160.32	1555.4	286.99	94.637	1298.1	266.52
906	3.7708	353.28	1294.4	276.81	208.61	1521.8	451.66	195.63	1511	112.73	201.57	1838.3	271.83	330.74	1002.2	416.23	335.51	1014.4	166.29	121.88	1047.3	314.47	130.77	1050	232.51	233.23	929.22	480.25	213.48	937.24	100.56	249.08	1097.8	457.76	235.73	1102.3	118.93	103.03	1008.2	273.46	204.08	676.2	492.83	270.87	583.89	466.47	194.71	585.55	486.41	290.54	692.74	477.69	211.96	515.74	479.75	190.76	499.01	354.86	135.87	294.16	495.68	208.28	215.64	465.27	134.9	223.15	484.82	201.48	287.21	483.33	155.62	108.18	476.06	182.56	114.65	389.1	96.907	74.085	419.71	109.19	44.031	390.65	97.7	42.113	454.34	262.18	39.998	519.31	311.47	40.589	404	368.59	58.37	458.64	167.27	713.02	96.428	235.45	607.26	90.505	164.99	623.5	98.889	232.94	697.64	82.009	192.08	522.28	96.218	193.51	500.2	218.13	109.61	343.32	81.708	184.32	262.15	74.292	120.39	265.59	83.309	172.83	338.15	73.283	176.09	105.89	82.1	185.38	109.11	173.34	106.07	71.847	122.04	112.76	46.899	155.58	110.55	44.388	94.161	293.74	43.152	52.999	326.44	49.353	168.29	382.92	59.202	118.11	160.34	1555.4	286.99	94.645	1298.1	266.52
907	3.775	353.29	1294.4	276.81	208.62	1521.8	451.66	195.65	1511	112.73	201.61	1838.3	271.83	330.73	1002.2	416.23	335.5	1014.4	166.3	121.88	1047.3	314.47	130.77	1050	232.51	233.22	929.22	480.25	213.48	937.24	100.56	249.08	1097.8	457.76	235.74	1102.3	118.94	103.02	1008.2	273.46	204.07	676.19	492.83	270.87	583.89	466.47	194.7	585.55	486.41	290.53	692.74	477.7	211.95	515.74	479.75	190.75	499.01	354.86	135.87	294.16	495.68	208.28	215.64	465.27	134.9	223.15	484.82	201.48	287.21	483.33	155.62	108.18	476.06	182.56	114.65	389.1	96.906	74.085	419.71	109.19	44.03	390.65	97.7	42.113	454.34	262.18	39.997	519.31	311.47	40.59	404	368.59	58.37	458.64	167.27	713.02	96.431	235.45	607.26	90.51	164.98	623.5	98.893	232.94	697.64	82.014	192.08	522.28	96.221	193.5	500.2	218.13	109.62	343.33	81.706	184.32	262.15	74.293	120.39	265.59	83.309	172.83	338.15	73.285	176.09	105.89	82.098	185.37	109.11	173.34	106.07	71.848	122.04	112.76	46.899	155.58	110.55	44.388	94.16	293.74	43.152	52.999	326.44	49.353	168.29	382.92	59.202	118.11	160.36	1555.4	286.99	94.654	1298.2	266.51
908	3.7792	353.3	1294.4	276.81	208.64	1521.8	451.65	195.67	1511	112.73	201.65	1838.3	271.84	330.73	1002.2	416.23	335.5	1014.4	166.31	121.87	1047.3	314.47	130.77	1050	232.52	233.22	929.22	480.26	213.48	937.24	100.57	249.08	1097.8	457.77	235.74	1102.3	118.95	103.02	1008.2	273.46	204.06	676.19	492.83	270.86	583.89	466.48	194.69	585.54	486.42	290.53	692.74	477.71	211.94	515.74	479.76	190.75	499.01	354.86	135.87	294.16	495.69	208.27	215.64	465.27	134.89	223.15	484.82	201.47	287.2	483.33	155.62	108.18	476.06	182.56	114.65	389.1	96.906	74.084	419.71	109.19	44.029	390.65	97.699	42.112	454.34	262.18	39.997	519.31	311.47	40.59	404	368.58	58.37	458.64	167.27	713.02	96.435	235.45	607.26	90.514	164.98	623.5	98.896	232.94	697.64	82.019	192.07	522.28	96.224	193.49	500.2	218.14	109.62	343.33	81.704	184.32	262.15	74.293	120.39	265.59	83.309	172.83	338.15	73.287	176.08	105.89	82.097	185.37	109.11	173.34	106.07	71.849	122.04	112.76	46.898	155.58	110.55	44.388	94.16	293.74	43.152	52.999	326.44	49.352	168.29	382.92	59.201	118.11	160.38	1555.4	286.99	94.662	1298.2	266.51
909	3.7833	353.32	1294.4	276.81	208.65	1521.8	451.65	195.69	1511.1	112.73	201.7	1838.3	271.84	330.72	1002.2	416.24	335.5	1014.4	166.32	121.87	1047.3	314.48	130.77	1050	232.52	233.21	929.22	480.26	213.48	937.25	100.57	249.08	1097.8	457.77	235.75	1102.3	118.95	103.02	1008.2	273.47	204.05	676.19	492.84	270.85	583.89	466.48	194.68	585.54	486.42	290.52	692.73	477.71	211.94	515.74	479.76	190.74	499.01	354.86	135.86	294.15	495.69	208.27	215.64	465.27	134.88	223.15	484.82	201.47	287.2	483.33	155.62	108.18	476.06	182.56	114.65	389.1	96.906	74.083	419.71	109.19	44.027	390.65	97.699	42.112	454.34	262.18	39.997	519.31	311.47	40.59	404	368.58	58.37	458.64	167.27	713.02	96.438	235.44	607.26	90.519	164.98	623.5	98.899	232.94	697.64	82.023	192.07	522.28	96.226	193.49	500.2	218.14	109.62	343.33	81.702	184.32	262.15	74.294	120.39	265.59	83.308	172.83	338.15	73.289	176.08	105.9	82.096	185.37	109.11	173.34	106.07	71.85	122.04	112.77	46.898	155.58	110.55	44.388	94.159	293.74	43.152	52.999	326.44	49.352	168.29	382.92	59.201	118.11	160.4	1555.4	286.99	94.671	1298.2	266.51
910	3.7875	353.33	1294.4	276.8	208.67	1521.8	451.65	195.71	1511.1	112.73	201.74	1838.3	271.84	330.72	1002.2	416.24	335.5	1014.4	166.33	121.87	1047.3	314.48	130.76	1050	232.52	233.2	929.23	480.27	213.48	937.25	100.58	249.09	1097.8	457.77	235.76	1102.3	118.96	103.01	1008.2	273.47	204.04	676.19	492.84	270.84	583.89	466.49	194.68	585.54	486.42	290.52	692.73	477.72	211.93	515.74	479.76	190.74	499.01	354.87	135.86	294.15	495.69	208.27	215.64	465.27	134.88	223.15	484.82	201.47	287.2	483.33	155.62	108.18	476.06	182.56	114.65	389.1	96.906	74.083	419.71	109.18	44.026	390.65	97.699	42.111	454.34	262.18	39.997	519.31	311.47	40.59	404	368.58	58.369	458.63	167.27	713.02	96.442	235.44	607.26	90.523	164.98	623.5	98.902	232.93	697.63	82.028	192.07	522.28	96.229	193.48	500.2	218.14	109.62	343.33	81.701	184.32	262.15	74.294	120.39	265.59	83.308	172.83	338.15	73.291	176.08	105.9	82.095	185.37	109.11	173.34	106.07	71.851	122.04	112.77	46.898	155.58	110.55	44.388	94.159	293.74	43.152	52.999	326.44	49.351	168.29	382.92	59.201	118.11	160.42	1555.4	286.99	94.679	1298.2	266.51
